<svg width="300" height="54" viewBox="0 0 300 54" fill="none" xmlns="http://www.w3.org/2000/svg">
<path d="M50.0673 0H31.3675L0 54H18.6998L50.0673 0Z" fill="#D9D9D9"/>
<path d="M54.4045 54H35.7047L67.0722 0H85.772L54.4045 54Z" fill="#D9D9D9"/>
<path d="M90.1092 54H71.4094L102.777 0H121.477L90.1092 54Z" fill="#D9D9D9"/>
<path d="M125.814 54H107.114L138.482 0H157.181L125.814 54Z" fill="#D9D9D9"/>
<path d="M161.519 54H142.819L174.186 0H192.886L161.519 54Z" fill="#D9D9D9"/>
<path d="M197.223 54H178.523L209.891 0H228.591L197.223 54Z" fill="#D9D9D9"/>
<path d="M232.928 54H214.228L245.596 0H264.295L232.928 54Z" fill="#D9D9D9"/>
<path d="M268.633 54H249.933L281.3 0H300L268.633 54Z" fill="#D9D9D9"/>
</svg>
