<svg xmlns="http://www.w3.org/2000/svg" width="300" height="300" viewBox="0 0 300 300"><path fill="#DDD" fill-rule="evenodd" d="M89,13 C108.329966,13 124,28.6700338 124,48 L124,58 L142,58 C161.329966,58 177,73.6700338 177,93 L177,102 L194,102 C213.329966,102 229,117.670034 229,137 L229,147 L247,147 C266.329966,147 282,162.670034 282,182 L282,253 C282,272.329966 266.329966,288 247,288 L212,288 C192.670034,288 177,272.329966 177,253 L177,243 L159,243 C139.670034,243 124,227.329966 124,208 L124,199 L107,199 C87.6700338,199 72,183.329966 72,164 L72,154 L54,154 C34.6700338,154 19,138.329966 19,119 L19,48 C19,28.6700338 34.6700338,13 54,13 L89,13 Z"/></svg>