<svg xmlns="http://www.w3.org/2000/svg" width="300" height="300" viewBox="0 0 300 300"><path fill="#DDD" fill-rule="evenodd" d="M170.715987,23.8565024 C174.133018,23.8565024 177.530502,24.3719492 180.793922,25.384962 C206.770998,33.448052 226.709964,46.531389 240.610865,64.6348274 C253.904796,81.9477954 264.454438,102.567708 272.259789,126.494565 C278.082808,144.346562 268.33054,163.538519 250.478285,169.360743 C247.073391,170.471194 243.514432,171.03671 239.933036,171.036375 L215.206911,171.035774 C215.961482,173.155337 216.693394,175.302205 217.402646,177.476378 C223.225665,195.328374 213.473397,214.520332 195.621142,220.342556 C192.216249,221.453006 188.657289,222.018522 185.075893,222.018187 L160.349768,222.017587 C161.104339,224.137149 161.836251,226.284017 162.545504,228.45819 C168.368522,246.310186 158.616254,265.502144 140.763999,271.324368 C137.359106,272.434819 133.800146,273 130.21875,273 L61,273 C42.2223185,273 27,257.777681 27,239 L27,159.818426 C27,141.040745 42.2240194,125.819188 61.0017008,125.820127 C64.4187325,125.820298 67.8162162,126.335574 71.0796362,127.348587 C74.7958946,128.501949 78.3885357,129.758195 81.857605,131.117181 L81.8571429,108.836614 C81.8580822,90.0589325 97.0811622,74.8373755 115.858844,74.8383148 C119.275875,74.8384858 122.673359,75.3537616 125.936779,76.3667744 C129.653037,77.5201366 133.245679,78.776383 136.714748,80.1353683 L136.714286,57.8548015 C136.715225,39.0771201 151.938305,23.8565024 170.715987,23.8565024 Z"/></svg>