<svg xmlns="http://www.w3.org/2000/svg" width="300" height="300" viewBox="0 0 300 300"><path fill="#DDD" fill-rule="evenodd" d="M88.5 94C93.7467051 94 98 98.2532949 98 103.5L98 196.38994C98 201.636645 93.7467051 205.88994 88.5 205.88994 83.2532949 205.88994 79 201.636645 79 196.38994L79 103.5C79 98.2532949 83.2532949 94 88.5 94ZM212.5 94C217.746705 94 222 98.2532949 222 103.5L222 196.38994C222 201.636645 217.746705 205.88994 212.5 205.88994 207.253295 205.88994 203 201.636645 203 196.38994L203 103.5C203 98.2532949 207.253295 94 212.5 94ZM243.5 120C248.746705 120 253 124.253295 253 129.5L253 170.666667C253 175.913372 248.746705 180.166667 243.5 180.166667 238.253295 180.166667 234 175.913372 234 170.666667L234 129.5C234 124.253295 238.253295 120 243.5 120ZM57.5 120C62.7467051 120 67 124.253295 67 129.5L67 170.666667C67 175.913372 62.7467051 180.166667 57.5 180.166667 52.2532949 180.166667 48 175.913372 48 170.666667L48 129.5C48 124.253295 52.2532949 120 57.5 120ZM119.5 67C124.746705 67 129 71.2532949 129 76.5L129 223.166501C129 228.413206 124.746705 232.666501 119.5 232.666501 114.253295 232.666501 110 228.413206 110 223.166501L110 76.5C110 71.2532949 114.253295 67 119.5 67ZM181.5 67C186.746705 67 191 71.2532949 191 76.5L191 223.166501C191 228.413206 186.746705 232.666501 181.5 232.666501 176.253295 232.666501 172 228.413206 172 223.166501L172 76.5C172 71.2532949 176.253295 67 181.5 67ZM150.5 41C155.746705 41 160 45.2532949 160 50.5L160 249.208333C160 254.455038 155.746705 258.708333 150.5 258.708333 145.253295 258.708333 141 254.455038 141 249.208333L141 50.5C141 45.2532949 145.253295 41 150.5 41Z"/></svg>